<svg width="123" height="30" viewBox="0 0 123 30" fill="none" xmlns="http://www.w3.org/2000/svg">
<path d="M15.488 0.638062L2.9375 7.91029V22.4551L15.488 29.7273L28.0384 22.4551V7.91029L15.488 0.638062ZM15.488 2.50601L25.6302 8.38283L14.9575 14.658L4.7368 8.73563L15.488 2.50601ZM18.43 17.6943C20.232 14.5387 22.8371 11.8992 25.9641 10.0606L26.4271 9.7884V21.5217L15.6782 27.7498C15.7337 24.2252 16.6821 20.7551 18.43 17.6943V17.6943Z" fill="#231F20"/>
<path d="M37.0836 21.4448C34.4882 21.4448 32.4833 20.0795 32.4473 17.7081H35.1323C35.204 18.7142 35.8662 19.3788 37.0299 19.3788C38.1937 19.3788 38.9095 18.75 38.9095 17.8516C38.9095 15.1387 32.4653 16.7736 32.4833 12.2286C32.4833 9.96489 34.3092 8.59961 36.8866 8.59961C39.464 8.59961 41.2007 9.91105 41.3616 12.1747H38.6049C38.5512 11.3482 37.8887 10.7018 36.815 10.6837C35.8305 10.6479 35.0967 11.1329 35.0967 12.1567C35.0967 14.6718 41.5049 13.2704 41.5049 17.6897C41.5049 19.6657 39.9296 21.4444 37.0836 21.4444V21.4448Z" fill="#010101"/>
<path d="M48.0738 21.481C45.2098 21.481 43.0439 19.4688 43.0439 16.3429C43.0439 13.217 45.2814 11.2048 48.1455 11.2048C51.0095 11.2048 53.247 13.1989 53.247 16.3429C53.247 19.4869 50.9558 21.481 48.0738 21.481ZM48.0738 19.2892C49.3985 19.2892 50.6692 18.3193 50.6692 16.3429C50.6692 14.3665 49.4342 13.3966 48.1095 13.3966C46.7847 13.3966 45.5857 14.3488 45.5857 16.3429C45.5857 18.337 46.7315 19.2892 48.0738 19.2892Z" fill="#010101"/>
<path d="M55.0908 8.02502H57.5969V21.319H55.0908V8.02502Z" fill="#010101"/>
<path d="M59.7979 8.70771C59.7979 7.88124 60.4424 7.23474 61.3372 7.23474C62.2319 7.23474 62.8765 7.88161 62.8765 8.70771C62.8765 9.53381 62.2143 10.1807 61.3372 10.1807C60.46 10.1807 59.7979 9.53381 59.7979 8.70771ZM60.0665 11.3664H62.5726V21.3191H60.0665V11.3664Z" fill="#010101"/>
<path d="M68.9451 11.2048C70.2518 11.2048 71.5049 11.8155 72.1851 12.7497V8.02502H74.7268V21.319H72.1851V19.8461C71.5942 20.7622 70.4844 21.4809 68.9271 21.4809C66.4033 21.4809 64.3984 19.4149 64.3984 16.3071C64.3984 13.1992 66.4033 11.2052 68.9451 11.2052V11.2048ZM69.5716 13.4146C68.2289 13.4146 66.9582 14.4207 66.9582 16.3071C66.9582 18.1935 68.2293 19.2715 69.5716 19.2715C70.914 19.2715 72.2031 18.2296 72.2031 16.3432C72.2031 14.4568 70.95 13.415 69.5716 13.415V13.4146Z" fill="#010101"/>
<path d="M81.5114 21.481C78.6293 21.481 76.5352 19.4688 76.5352 16.3429C76.5352 13.217 78.5757 11.2048 81.5114 11.2048C84.4471 11.2048 86.3983 13.1631 86.3983 16.1272C86.3983 16.4506 86.3803 16.774 86.3266 17.0971H79.0769C79.2022 18.5701 80.2047 19.3965 81.4577 19.3965C82.5318 19.3965 83.1223 18.8577 83.4446 18.1928H86.1477C85.6108 20.0253 83.9638 21.4802 81.5114 21.4802V21.481ZM79.0949 15.4087H83.8025C83.7669 14.0973 82.7284 13.2708 81.4397 13.2708C80.2403 13.2708 79.2915 14.0435 79.0949 15.4087V15.4087Z" fill="#010101"/>
<path d="M88.492 13.4324H87.3643V11.3664H88.492V10.8634C88.492 8.42007 89.8704 7.28824 92.6628 7.36015V9.48C91.4458 9.44423 91.0338 9.8392 91.0338 10.953V11.366H92.7701V13.432H91.0338V21.3187H88.492V13.432V13.4324Z" fill="#010101"/>
<path d="M94.1299 8.70771C94.1299 7.88124 94.7744 7.23474 95.6692 7.23474C96.564 7.23474 97.2085 7.88161 97.2085 8.70771C97.2085 9.53381 96.5463 10.1807 95.6692 10.1807C94.7921 10.1807 94.1299 9.53381 94.1299 8.70771ZM94.3985 11.3664H96.9046V21.3191H94.3985V11.3664Z" fill="#010101"/>
<path d="M103.706 21.481C100.824 21.481 98.7295 19.4688 98.7295 16.3429C98.7295 13.217 100.77 11.2048 103.706 11.2048C106.641 11.2048 108.593 13.1631 108.593 16.1272C108.593 16.4506 108.575 16.774 108.521 17.0971H101.271C101.397 18.5701 102.399 19.3965 103.652 19.3965C104.726 19.3965 105.317 18.8577 105.639 18.1928H108.342C107.805 20.0253 106.158 21.4802 103.706 21.4802V21.481ZM101.289 15.4087H105.997C105.961 14.0973 104.923 13.2708 103.634 13.2708C102.435 13.2708 101.486 14.0435 101.289 15.4087Z" fill="#010101"/>
<path d="M114.321 11.2048C115.628 11.2048 116.881 11.8155 117.561 12.7497V8.02502H120.103V21.319H117.561V19.8461C116.97 20.7622 115.86 21.4809 114.303 21.4809C111.779 21.4809 109.774 19.4149 109.774 16.3071C109.774 13.1992 111.779 11.2052 114.321 11.2052V11.2048ZM114.948 13.4146C113.605 13.4146 112.334 14.4207 112.334 16.3071C112.334 18.1935 113.605 19.2715 114.948 19.2715C116.29 19.2715 117.579 18.2296 117.579 16.3432C117.579 14.4568 116.326 13.415 114.948 13.415V13.4146Z" fill="#010101"/>
</svg>
